<svg xmlns="http://www.w3.org/2000/svg" style="display: none;">
  <!-- LinkedIn -->
  <symbol id="icon-linkedin" viewBox="0 0 64 64">
    <rect width="64" height="64" rx="8" fill="#0077B5"/>
    <path d="M20 42h-6V26h6v16zm-3-18c-2 0-3.5-1.5-3.5-3.5S15 17 17 17s3.5 1.5 3.5 3.5S19 24 17 24zm30 18h-6v-7.8c0-5.9-7-5.5-7 0V42h-6V26h6v3.5c2.5-4.5 13-4.8 13 4.3V42z" fill="white"/>
  </symbol>
  
  <!-- Indeed -->
  <symbol id="icon-indeed" viewBox="0 0 64 64">
    <rect width="64" height="64" rx="8" fill="#2164F3"/>
    <path d="M18 42.5V26h6v2.5h0.1c1.2-2 3.5-3 5.9-3 6.3 0 7.5 4.2 7.5 9.6v7.5h-6V36c0-2.3-0.5-5-3.8-5-3.8 0-4.4 2.4-4.4 4.8v6.6H18z" fill="white"/>
    <circle cx="21" cy="20.5" r="3.5" fill="white"/>
  </symbol>
  
  <!-- Glassdoor -->
  <symbol id="icon-glassdoor" viewBox="0 0 64 64">
    <rect width="64" height="64" rx="8" fill="#0CAA41"/>
    <path d="M32 18c-10 0-18 6.5-18 14.5S22 47 32 47s18-6.5 18-14.5S42 18 32 18zm0 23c-5.5 0-10-3.8-10-8.5 0-1.2 0.3-2.3 0.7-3.4 3 2.4 6.8 3.9 11 3.9h6.6c-1.8 4.6-5.6 8-8.3 8z" fill="white"/>
  </symbol>
  
  <!-- Monster -->
  <symbol id="icon-monster" viewBox="0 0 64 64">
    <rect width="64" height="64" rx="8" fill="#6E00FF"/>
    <path d="M40 26c-2.2 0-4 1.8-4 4v4c0 2.2-1.8 4-4 4s-4-1.8-4-4v-4c0-2.2-1.8-4-4-4s-4 1.8-4 4v4c0 6.6 5.4 12 12 12s12-5.4 12-12v-4c0-2.2-1.8-4-4-4z" fill="white"/>
  </symbol>
  
  <!-- HeadHunter -->
  <symbol id="icon-hh" viewBox="0 0 64 64">
    <rect width="64" height="64" rx="8" fill="#D6001C"/>
    <path d="M16 20h8v10h16V20h8v24h-8V38H24v6h-8V20z" fill="white"/>
  </symbol>
  
  <!-- SuperJob -->
  <symbol id="icon-superjob" viewBox="0 0 64 64">
    <rect width="64" height="64" rx="8" fill="#0CA9E3"/>
    <path d="M14 32.5v-13h7c4 0 6.5 2 6.5 6s-2.5 7-6.5 7H14zm7-4c2 0 3-1 3-3s-1-3-3-3h-3v6h3zm10 4v-13h4v13h-4zm17-13c4 0 6 2 6 5 0 2-1 3.5-3 4.3 2 0.8 3 2 3 4.2 0 3-2 4.5-6 4.5h-8v-18h8zm-1 7c1.7 0 2.5-0.8 2.5-2.2 0-1.5-0.8-2.3-2.5-2.3h-3v4.5h3zm0 7.5c1.7 0 2.5-0.8 2.5-2.3 0-1.4-0.8-2.2-2.5-2.2h-3v4.5h3z" fill="white"/>
  </symbol>
  
  <!-- GitHub Jobs -->
  <symbol id="icon-github" viewBox="0 0 64 64">
    <rect width="64" height="64" rx="8" fill="#24292E"/>
    <path d="M32 16c-8.8 0-16 7.2-16 16 0 7.1 4.6 13.1 10.9 15.2 0.8 0.1 1.1-0.3 1.1-0.8v-2.7c-4.5 1-5.4-2.1-5.4-2.1-0.7-1.8-1.8-2.3-1.8-2.3-1.5-1 0.1-1 0.1-1 1.6 0.1 2.5 1.6 2.5 1.6 1.4 2.4 3.7 1.7 4.7 1.3 0.1-1 0.6-1.7 1-2.1-3.6-0.4-7.3-1.8-7.3-7.9 0-1.7 0.6-3.2 1.6-4.3-0.2-0.4-0.7-2 0.2-4.2 0 0 1.3-0.4 4.4 1.6 1.3-0.4 2.6-0.5 4-0.5 1.4 0 2.7 0.2 4 0.5 3.1-2.1 4.4-1.6 4.4-1.6 0.9 2.2 0.3 3.8 0.2 4.2 1 1.1 1.6 2.5 1.6 4.3 0 6.1-3.7 7.5-7.3 7.9 0.6 0.5 1.1 1.5 1.1 3v4.4c0 0.4 0.3 0.9 1.1 0.8C43.4 45.1 48 39.1 48 32c0-8.8-7.2-16-16-16z" fill="white"/>
  </symbol>
  
  <!-- Stack Overflow Jobs -->
  <symbol id="icon-stackoverflow" viewBox="0 0 64 64">
    <rect width="64" height="64" rx="8" fill="#F48024"/>
    <path d="M42 42v-9h4v13H18V33h4v9h20zm-18-4h16v-4H24v4zm0.8-7.5l1-3.8 15.7 4-1 3.9-15.7-4zm2-7.2l1.9-3.5 14.1 7.5-1.8 3.5-14.2-7.5zM32 16l12.5 10.5-2.5 3L30 19l2-3z" fill="white"/>
  </symbol>
  
  <!-- Upwork -->
  <symbol id="icon-upwork" viewBox="0 0 64 64">
    <rect width="64" height="64" rx="8" fill="#6FDA44"/>
    <path d="M42.5 32.6c-2.7 0-5.3-1.2-7.5-3l0.6-2.7v-0.1l2.1-13.4h4.4L40 24.8c1.1 0.7 2.4 1.2 3.8 1.2 2 0 3.2-0.9 3.2-2.6 0-1.8-1.4-2.8-4.1-2.8h-1v-4h1c5.3 0 8.6 2.7 8.6 7.1 0 4.8-3.6 7.9-9 7.9zM28 38c-2.4 0-4.5-0.6-6.3-1.5l2-3.4c1.3 0.7 2.7 1.1 4.1 1.1 2.9 0 4.8-1.9 5.8-5.1-1.2 1.4-3.2 2.3-5.5 2.3-4.1 0-7.1-2.7-7.1-6.4 0-4.2 3.7-7.9 8.7-7.9 5.6 0 9.1 4.3 9.1 11.3 0.1 6.7-4.2 10.6-10.8 10.6zm2-16.1c-1.9 0-3.4 1.5-3.4 3.3 0 1.5 1 2.5 2.5 2.5 1.9 0 3.4-1.5 3.4-3.3 0-1.5-1-2.5-2.5-2.5zM17 31.1l-1.1-0.5c-2.6-1.1-3.6-2.1-3.6-3.9 0-2.2 1.7-3.8 4.2-3.8 1.2 0 2.3 0.3 3.5 0.9L18.7 27c-0.8-0.4-1.4-0.6-2.1-0.6-1 0-1.6 0.6-1.6 1.3 0 0.6 0.4 0.9 1.6 1.5l1.1 0.5c2.9 1.2 4 2.4 4 4.2 0 2.4-1.9 4.1-4.7 4.1-1.4 0-3-0.5-4.3-1.2l1.3-3.4c1 0.6 1.9 0.9 2.9 0.9 1.1 0 1.7-0.5 1.7-1.3 0-0.7-0.4-1.1-1.6-1.9z" fill="white"/>
  </symbol>
  
  <!-- Freelancer -->
  <symbol id="icon-freelancer" viewBox="0 0 64 64">
    <rect width="64" height="64" rx="8" fill="#29B2FE"/>
    <path d="M32 17.6L36.4 32H42l-4.8-20-5.2 5.6zm0 0l-4.4 14.4H22l4.6-20 5.4 5.6zm0 28.8l-7-12.8H32v-7.8h9l7 20.6h-5.4L39 36h-7v10.4z" fill="white"/>
  </symbol>
  
  <!-- Stepstone -->
  <symbol id="icon-stepstone" viewBox="0 0 64 64">
    <rect width="64" height="64" rx="8" fill="#0063A3"/>
    <path d="M19 27h26l-5 5H24l-5-5zm5 7h16l-5 5H29l-5-5zm-5 7h26l-5 5H24l-5-5z" fill="white"/>
  </symbol>
  
  <!-- Rabota.ru -->
  <symbol id="icon-rabota" viewBox="0 0 64 64">
    <rect width="64" height="64" rx="8" fill="#FF5B59"/>
    <path d="M19 26h6c3 0 5 1.5 5 4.5S28 35 25 35h-2v7h-4V26zm6 5.5c0-1-0.7-1.5-2-1.5h-1v3h1c1.3 0 2-0.5 2-1.5zM31 26h4v12h7v4H31V26zM13 46h38v2H13v-2z" fill="white"/>
  </symbol>
  
  <!-- Generic Web -->
  <symbol id="icon-web" viewBox="0 0 64 64">
    <rect width="64" height="64" rx="8" fill="#607D8B"/>
    <path d="M32 16c-8.8 0-16 7.2-16 16s7.2 16 16 16 16-7.2 16-16-7.2-16-16-16zm-1 4h2v3h-2v-3zm-11 11c0-1.4 0.2-2.7 0.6-4h4.2c-0.2 1.3-0.3 2.6-0.3 4s0.1 2.7 0.3 4h-4.2c-0.4-1.3-0.6-2.6-0.6-4zm1.6 6h3.8c0.6 2.3 1.4 4.3 2.4 5.6-2.6-1-4.8-3-6.2-5.6zm3.8-12h-3.8c1.4-2.6 3.6-4.6 6.2-5.6-1 1.3-1.8 3.3-2.4 5.6zm7.6 18c-1.8 0-3.8-3.5-4.4-8h8.8c-0.6 4.5-2.6 8-4.4 8zm-4.7-10c-0.2-1.3-0.3-2.6-0.3-4s0.1-2.7 0.3-4h9.4c0.2 1.3 0.3 2.6 0.3 4s-0.1 2.7-0.3 4h-9.4zm9.1 10c1-1.3 1.8-3.3 2.4-5.6h3.8c-1.4 2.6-3.6 4.5-6.2 5.6zm2.4-7.6c0.2-1.3 0.3-2.6 0.3-4s-0.1-2.7-0.3-4h4.2c0.4 1.3 0.6 2.6 0.6 4s-0.2 2.7-0.6 4h-4.2zm2.4-10h-3.8c-0.6-2.3-1.4-4.3-2.4-5.6 2.6 1 4.8 3 6.2 5.6z" fill="white"/>
  </symbol>
</svg>
